<svg width="16" height="16" viewBox="0 0 16 16" fill="none" xmlns="http://www.w3.org/2000/svg">
<path d="M11.9473 1.00332C11.9471 1.26845 11.8416 1.52263 11.654 1.70999L6.53933 6.82466C6.38452 6.97943 6.26171 7.16318 6.17793 7.36542C6.09414 7.56765 6.05102 7.78442 6.05102 8.00332C6.05102 8.22223 6.09414 8.43899 6.17793 8.64123C6.26171 8.84347 6.38452 9.02722 6.53933 9.18199L11.6473 14.29C11.8295 14.4786 11.9303 14.7312 11.928 14.9934C11.9257 15.2556 11.8206 15.5064 11.6351 15.6918C11.4497 15.8772 11.1989 15.9824 10.9367 15.9847C10.6745 15.9869 10.4219 15.8861 10.2333 15.704L5.12533 10.6C4.4385 9.91181 4.05276 8.97926 4.05276 8.00699C4.05276 7.03472 4.4385 6.10216 5.12533 5.41399L10.24 0.295989C10.3798 0.156045 10.5581 0.0607314 10.7521 0.0221086C10.9462 -0.0165141 11.1473 0.00328998 11.3301 0.079015C11.5129 0.15474 11.6691 0.282982 11.7789 0.447515C11.8888 0.612047 11.9474 0.805475 11.9473 1.00332Z" fill="#202020"/>
</svg>
