<svg width="512" height="512" viewBox="0 0 512 512" fill="none" xmlns="http://www.w3.org/2000/svg">
<g clip-path="url(#clip0_1038_293)">
<path d="M429.589 512C421.697 511.978 413.887 510.393 406.611 507.335C399.336 504.278 392.738 499.809 387.199 494.187L255.999 363.755L124.799 494.272C116.373 502.821 105.567 508.633 93.7896 510.95C82.0121 513.268 69.8095 511.983 58.7727 507.264C47.6264 502.781 38.091 495.04 31.4118 485.054C24.7326 475.068 21.22 463.299 21.3327 451.285V106.667C21.3327 78.3769 32.5708 51.2458 52.5747 31.2419C72.5785 11.2381 99.7096 0 127.999 0L383.999 0C398.007 0 411.878 2.75902 424.819 8.11952C437.76 13.48 449.519 21.337 459.424 31.2419C469.329 41.1469 477.186 52.9057 482.547 65.8471C487.907 78.7885 490.666 92.659 490.666 106.667V451.285C490.786 463.289 487.285 475.051 480.622 485.036C473.959 495.021 464.442 502.767 453.311 507.264C445.798 510.406 437.733 512.017 429.589 512ZM127.999 42.6667C111.026 42.6667 94.7469 49.4095 82.7445 61.4118C70.7422 73.4142 63.9994 89.6928 63.9994 106.667V451.285C63.9917 454.84 65.0377 458.318 67.0053 461.278C68.9728 464.239 71.7737 466.55 75.0541 467.92C78.3345 469.29 81.9472 469.656 85.436 468.974C88.9247 468.291 92.1329 466.59 94.6554 464.085L241.066 318.571C245.063 314.597 250.47 312.367 256.106 312.367C261.742 312.367 267.149 314.597 271.146 318.571L417.386 464.043C419.909 466.548 423.117 468.249 426.605 468.931C430.094 469.614 433.707 469.247 436.987 467.877C440.268 466.507 443.069 464.196 445.036 461.236C447.004 458.275 448.05 454.798 448.042 451.243V106.667C448.042 89.6928 441.299 73.4142 429.297 61.4118C417.295 49.4095 401.016 42.6667 384.042 42.6667H127.999Z" fill="#969696"/>
</g>
<defs>
<clipPath id="clip0_1038_293">
<rect width="512" height="512" fill="white"/>
</clipPath>
</defs>
</svg>
