<svg width="512" height="512" viewBox="0 0 512 512" fill="none" xmlns="http://www.w3.org/2000/svg">
<g clip-path="url(#clip0_1038_295)">
<path d="M60.7791 502.4C72.4281 507.378 85.3071 508.73 97.736 506.28C110.165 503.829 121.567 497.689 130.454 488.661L256 363.797L381.547 488.661C387.401 494.601 394.375 499.32 402.065 502.546C409.754 505.772 418.008 507.441 426.347 507.456C434.919 507.431 443.401 505.713 451.307 502.4C463.051 497.647 473.09 489.464 480.111 478.918C487.133 468.372 490.812 455.954 490.667 443.285V106.667C490.633 78.3873 479.384 51.2759 459.388 31.2794C439.391 11.2828 412.28 0.0338743 384 0L128 0C99.7211 0.0338743 72.6097 11.2828 52.6132 31.2794C32.6166 51.2759 21.3677 78.3873 21.3338 106.667V443.285C21.1961 455.964 24.8874 468.389 31.925 478.936C38.9626 489.483 49.019 497.661 60.7791 502.4Z" fill="#5364FF"/>
</g>
<defs>
<clipPath id="clip0_1038_295">
<rect width="512" height="512" fill="white"/>
</clipPath>
</defs>
</svg>
