<svg width="512" height="512" viewBox="0 0 512 512" fill="none" xmlns="http://www.w3.org/2000/svg">
<g clip-path="url(#clip0_1141_101)">
<path d="M394.667 42.6667H384V32C384 14.3147 369.664 0 352 0C334.336 0 320 14.3147 320 32V42.6667H192V32C192 14.3147 177.664 0 160 0C142.336 0 128 14.3147 128 32V42.6667H117.333C52.6507 42.6667 0 95.296 0 160V394.667C0 459.371 52.6507 512 117.333 512H394.667C459.349 512 512 459.371 512 394.667V160C512 95.296 459.349 42.6667 394.667 42.6667ZM394.667 448H117.333C87.9147 448 64 424.064 64 394.667V192H448V394.667C448 424.064 424.085 448 394.667 448ZM213.333 266.667V309.333C213.333 326.997 198.997 341.333 181.333 341.333H138.667C121.003 341.333 106.667 326.997 106.667 309.333V266.667C106.667 249.003 121.003 234.667 138.667 234.667H181.333C198.997 234.667 213.333 249.003 213.333 266.667Z" fill="#5364FF"/>
</g>
<defs>
<clipPath id="clip0_1141_101">
<rect width="512" height="512" fill="white"/>
</clipPath>
</defs>
</svg>
