<svg width="512" height="512" viewBox="0 0 512 512" fill="none" xmlns="http://www.w3.org/2000/svg">
<g clip-path="url(#clip0_1141_103)">
<path d="M170.667 256H128C104.469 256 85.3333 275.136 85.3333 298.667V341.333C85.3333 364.864 104.469 384 128 384H170.667C194.197 384 213.333 364.864 213.333 341.333V298.667C213.333 275.136 194.197 256 170.667 256ZM128 341.333V298.667H170.667V341.333H128ZM405.333 42.6667H384V21.3333C384 9.55733 374.464 0 362.667 0C350.869 0 341.333 9.55733 341.333 21.3333V42.6667H170.667V21.3333C170.667 9.55733 161.131 0 149.333 0C137.536 0 128 9.55733 128 21.3333V42.6667H106.667C47.8507 42.6667 0 90.5173 0 149.333V405.333C0 464.149 47.8507 512 106.667 512H405.333C464.149 512 512 464.149 512 405.333V149.333C512 90.5173 464.149 42.6667 405.333 42.6667ZM106.667 85.3333H405.333C440.619 85.3333 469.333 114.048 469.333 149.333V170.667H42.6667V149.333C42.6667 114.048 71.3813 85.3333 106.667 85.3333ZM405.333 469.333H106.667C71.3813 469.333 42.6667 440.619 42.6667 405.333V213.333H469.333V405.333C469.333 440.619 440.619 469.333 405.333 469.333Z" fill="#969696"/>
</g>
<defs>
<clipPath id="clip0_1141_103">
<rect width="512" height="512" fill="white"/>
</clipPath>
</defs>
</svg>
