<svg width="16" height="16" viewBox="0 0 16 16" fill="none" xmlns="http://www.w3.org/2000/svg">
<g clip-path="url(#clip0_921_200)">
<path d="M4.05264 14.9967C4.05287 14.7315 4.15838 14.4774 4.34597 14.29L9.46064 9.17533C9.61545 9.02056 9.73826 8.83681 9.82204 8.63457C9.90583 8.43233 9.94895 8.21557 9.94895 7.99666C9.94895 7.77776 9.90583 7.56099 9.82204 7.35876C9.73826 7.15652 9.61545 6.97277 9.46064 6.818L4.35264 1.71C4.17048 1.5214 4.06969 1.26879 4.07197 1.0066C4.07424 0.7444 4.17941 0.493588 4.36482 0.30818C4.55023 0.122771 4.80104 0.0176024 5.06324 0.0153239C5.32544 0.0130455 5.57804 0.11384 5.76664 0.295998L10.8746 5.4C11.5615 6.08817 11.9472 7.02073 11.9472 7.993C11.9472 8.96527 11.5615 9.89782 10.8746 10.586L5.75997 15.704C5.62012 15.8439 5.4419 15.9393 5.24786 15.9779C5.05382 16.0165 4.85268 15.9967 4.6699 15.921C4.48711 15.8452 4.3309 15.717 4.22103 15.5525C4.11115 15.3879 4.05255 15.1945 4.05264 14.9967Z" fill="#828282" fill-opacity="0.8"/>
</g>
<defs>
<clipPath id="clip0_921_200">
<rect width="16" height="16" fill="white" transform="translate(16 16) rotate(180)"/>
</clipPath>
</defs>
</svg>
