<svg width="24" height="24" viewBox="0 0 24 24" fill="none" xmlns="http://www.w3.org/2000/svg">
<g clip-path="url(#clip0_1089_236)">
<path d="M23.7075 7.29325C23.3165 6.90225 22.6845 6.90225 22.2935 7.29325L20.0005 9.58625L14.4145 4.00025L16.7075 1.70725C17.0985 1.31625 17.0985 0.68425 16.7075 0.29325C16.3165 -0.09775 15.6845 -0.09775 15.2935 0.29325L12.4485 3.13825L6.58548 5.30725C5.09748 5.85825 3.94848 7.09825 3.51248 8.62425L0.111481 20.5452C-0.166519 21.4912 0.0934809 22.5122 0.791481 23.2092C1.30448 23.7232 1.99348 23.9992 2.69548 23.9992C2.94648 23.9992 3.19948 23.9642 3.44648 23.8912L15.3305 20.5142C16.8515 20.0822 18.0905 18.9402 18.6455 17.4602L20.8605 11.5532L23.7065 8.70725C24.0975 8.31625 24.0975 7.68425 23.7065 7.29325H23.7075ZM16.7725 16.7582C16.4395 17.6462 15.6965 18.3312 14.7835 18.5912L3.66348 21.7512L9.48148 15.9332C9.64648 15.9772 9.82048 16.0012 9.99948 16.0012C11.1045 16.0012 11.9995 15.1062 11.9995 14.0012C11.9995 12.8962 11.1045 12.0012 9.99948 12.0012C8.89448 12.0012 7.99948 12.8962 7.99948 14.0012C7.99948 14.1802 8.02348 14.3542 8.06748 14.5192L2.25048 20.3362L5.43448 9.17525C5.69648 8.25925 6.38548 7.51525 7.27848 7.18425L12.7455 5.16125L18.8365 11.2522L16.7725 16.7582Z" fill="black"/>
</g>
<defs>
<clipPath id="clip0_1089_236">
<rect width="24" height="24" fill="white"/>
</clipPath>
</defs>
</svg>
