<svg width="512" height="512" viewBox="0 0 512 512" fill="none" xmlns="http://www.w3.org/2000/svg">
<g clip-path="url(#clip0_1036_287)">
<path d="M239.787 511.999C232.797 511.974 225.897 510.431 219.563 507.477C209.216 502.869 200.906 494.644 196.193 484.346C191.48 474.047 190.687 462.382 193.963 451.54L227.264 341.332H148.8C138.803 341.345 128.943 339.015 120.008 334.53C111.074 330.044 103.315 323.529 97.3527 315.505C91.3902 307.481 87.3903 298.172 85.6735 288.324C83.9567 278.475 84.5708 268.362 87.4665 258.794L151.979 45.4604C155.911 32.2653 164.017 20.7015 175.079 12.5045C186.142 4.30749 199.565 -0.0804945 213.333 -0.000888819H292.117C301.072 0.00660222 309.892 2.18207 317.823 6.33958C325.754 10.4971 332.561 16.5131 337.661 23.8733C342.761 31.2336 346.004 39.7193 347.112 48.6053C348.219 57.4913 347.159 66.5134 344.021 74.9005L308.117 170.666H362.667C374.294 170.665 385.703 173.832 395.666 179.826C405.63 185.821 413.772 194.417 419.218 204.69C424.664 214.964 427.208 226.527 426.577 238.138C425.946 249.749 422.164 260.968 415.637 270.591L279.104 490.324C274.883 496.935 269.073 502.382 262.205 506.168C255.337 509.954 247.629 511.959 239.787 511.999ZM213.333 42.6658C208.752 42.6613 204.291 44.1318 200.61 46.8597C196.929 49.5876 194.224 53.4279 192.896 57.8125L128.384 271.146C127.418 274.333 127.212 277.703 127.782 280.984C128.352 284.266 129.683 287.368 131.667 290.043C133.651 292.718 136.235 294.891 139.21 296.388C142.185 297.886 145.469 298.666 148.8 298.666H256C259.33 298.666 262.615 299.446 265.59 300.943C268.565 302.441 271.148 304.614 273.133 307.289C275.117 309.964 276.448 313.066 277.018 316.347C277.588 319.629 277.382 322.998 276.416 326.186L234.88 463.615C234.688 464.121 234.603 464.661 234.631 465.201C234.658 465.741 234.798 466.27 235.04 466.753C235.283 467.237 235.624 467.664 236.04 468.009C236.457 468.354 236.941 468.608 237.461 468.756C237.933 469.059 238.463 469.259 239.016 469.344C239.57 469.429 240.135 469.397 240.676 469.251C241.217 469.104 241.72 468.846 242.155 468.492C242.59 468.139 242.946 467.698 243.2 467.199L379.733 247.466C382.121 244.227 383.544 240.38 383.838 236.367C384.133 232.355 383.286 228.341 381.397 224.788C379.646 221.328 376.967 218.424 373.659 216.401C370.351 214.377 366.544 213.315 362.667 213.332H277.333C273.885 213.335 270.488 212.501 267.433 210.903C264.377 209.305 261.755 206.99 259.79 204.157C257.825 201.324 256.576 198.057 256.15 194.635C255.724 191.214 256.134 187.74 257.344 184.511L304.064 59.9245C304.782 57.9929 305.023 55.9165 304.766 53.8719C304.509 51.8273 303.763 49.8748 302.59 48.1805C301.417 46.4861 299.853 45.1 298.029 44.1399C296.206 43.1798 294.178 42.6741 292.117 42.6658H213.333Z" fill="#969696"/>
</g>
<defs>
<clipPath id="clip0_1036_287">
<rect width="512" height="512" fill="white"/>
</clipPath>
</defs>
</svg>
