<svg width="512" height="512" viewBox="0 0 512 512" fill="none" xmlns="http://www.w3.org/2000/svg">
<g clip-path="url(#clip0_1036_285)">
<path d="M239.787 511.999C232.797 511.974 225.897 510.431 219.563 507.477C209.216 502.869 200.906 494.644 196.193 484.346C191.48 474.047 190.687 462.382 193.963 451.54L227.264 341.332H148.8C138.803 341.345 128.943 339.015 120.008 334.53C111.074 330.044 103.315 323.529 97.3527 315.505C91.3902 307.481 87.3903 298.172 85.6735 288.324C83.9567 278.475 84.5708 268.362 87.4665 258.794L151.979 45.4604C155.911 32.2653 164.017 20.7015 175.079 12.5045C186.142 4.30749 199.565 -0.0804945 213.333 -0.000888819H292.117C301.072 0.00660222 309.892 2.18207 317.823 6.33958C325.754 10.4971 332.561 16.5131 337.661 23.8733C342.761 31.2336 346.004 39.7193 347.112 48.6053C348.219 57.4913 347.159 66.5134 344.021 74.9005L308.117 170.666H362.667C374.294 170.665 385.703 173.832 395.666 179.826C405.63 185.821 413.772 194.417 419.218 204.69C424.664 214.964 427.208 226.527 426.577 238.138C425.946 249.749 422.164 260.968 415.637 270.591L279.104 490.324C274.883 496.935 269.073 502.382 262.205 506.168C255.337 509.954 247.629 511.959 239.787 511.999Z" fill="#5364FF"/>
</g>
<defs>
<clipPath id="clip0_1036_285">
<rect width="512" height="512" fill="white"/>
</clipPath>
</defs>
</svg>
