<svg width="24" height="24" viewBox="0 0 24 24" fill="none" xmlns="http://www.w3.org/2000/svg">
<g clip-path="url(#clip0_1089_241)">
<path d="M22.8302 9.17142L18.9512 5.29242C18.5539 4.90875 17.9209 4.91976 17.5372 5.31703C17.1629 5.70454 17.1629 6.31893 17.5372 6.70645L21.4162 10.5854C21.5315 10.703 21.6322 10.8339 21.7162 10.9754C21.7012 10.9754 21.6892 10.9674 21.6742 10.9674L5.99022 10.9994C5.43794 10.9994 4.99023 11.4472 4.99023 11.9994C4.99023 12.5517 5.43794 12.9994 5.99022 12.9994L21.6682 12.9674C21.6962 12.9674 21.7192 12.9534 21.7462 12.9514C21.6575 13.1206 21.545 13.2762 21.4122 13.4134L17.5332 17.2924C17.136 17.6761 17.125 18.3091 17.5086 18.7064C17.8923 19.1037 18.5253 19.1147 18.9226 18.731C18.931 18.7229 18.9392 18.7147 18.9472 18.7064L22.8262 14.8274C24.3878 13.2654 24.3878 10.7334 22.8262 9.17142H22.8302Z" fill="black"/>
<path d="M7.00194 22H5.00192C3.34508 22 2.00192 20.6568 2.00192 19V5.00002C2.00192 3.34317 3.34508 2.00002 5.00192 2.00002H7.00194C7.55422 2.00002 8.00192 1.55231 8.00192 1.00003C8.00192 0.44775 7.55427 0 7.00194 0H5.00192C2.24192 0.00332813 0.00528125 2.23997 0.00195312 5.00002V19C0.00528125 21.76 2.24192 23.9967 5.00197 24H7.00198C7.55427 24 8.00197 23.5523 8.00197 23C8.00197 22.4477 7.55427 22 7.00194 22Z" fill="black"/>
</g>
<defs>
<clipPath id="clip0_1089_241">
<rect width="24" height="24" fill="white"/>
</clipPath>
</defs>
</svg>
