<svg width="16" height="16" viewBox="0 0 16 16" fill="none" xmlns="http://www.w3.org/2000/svg">
<g clip-path="url(#clip0_1061_181)">
<path d="M14.8 1.44113C14.4252 1.12775 13.986 0.90072 13.5137 0.77617C13.0413 0.65162 12.5472 0.6326 12.0667 0.72046L9.51867 1.18313C8.9304 1.29116 8.39553 1.59381 8 2.04246C7.60344 1.59304 7.06704 1.29031 6.47733 1.18313L3.93333 0.72046C3.45277 0.632523 2.95875 0.651294 2.48625 0.775444C2.01375 0.899595 1.57431 1.12609 1.19904 1.4389C0.823778 1.7517 0.521857 2.14317 0.314655 2.5856C0.107452 3.02802 3.25416e-05 3.51059 0 3.99913L0 11.1945C3.83039e-05 11.975 0.273984 12.7308 0.774089 13.33C1.27419 13.9293 1.96874 14.3341 2.73667 14.4738L6.92733 15.2358C7.63664 15.3647 8.36336 15.3647 9.07267 15.2358L13.2667 14.4738C14.034 14.3334 14.7278 13.9283 15.2272 13.3291C15.7266 12.7299 16.0001 11.9745 16 11.1945V3.99913C16.0003 3.51076 15.8929 3.02833 15.6855 2.58619C15.4781 2.14405 15.1758 1.75308 14.8 1.44113ZM7.33333 13.9511C7.27733 13.9431 7.22133 13.9338 7.16533 13.9238L2.97533 13.1625C2.51451 13.0786 2.09773 12.8357 1.79766 12.4761C1.49759 12.1164 1.33326 11.6628 1.33333 11.1945V3.99913C1.33333 3.46869 1.54405 2.95999 1.91912 2.58491C2.29419 2.20984 2.8029 1.99913 3.33333 1.99913C3.45406 1.99941 3.57453 2.01035 3.69333 2.03179L6.24 2.49846C6.54641 2.55453 6.82351 2.71611 7.02323 2.95516C7.22294 3.1942 7.33266 3.49563 7.33333 3.80713V13.9511ZM14.6667 11.1945C14.6667 11.6628 14.5024 12.1164 14.2023 12.4761C13.9023 12.8357 13.4855 13.0786 13.0247 13.1625L8.83467 13.9238C8.77867 13.9338 8.72267 13.9431 8.66667 13.9511V3.80713C8.66662 3.49487 8.77617 3.1925 8.97622 2.95273C9.17626 2.71297 9.45412 2.55102 9.76133 2.49513L12.3087 2.02846C12.5971 1.97597 12.8936 1.98756 13.1771 2.0624C13.4606 2.13724 13.7242 2.2735 13.9492 2.46153C14.1742 2.64956 14.3551 2.88476 14.4791 3.15048C14.6031 3.41619 14.6671 3.70591 14.6667 3.99913V11.1945Z" fill="white"/>
</g>
<defs>
<clipPath id="clip0_1061_181">
<rect width="16" height="16" fill="white"/>
</clipPath>
</defs>
</svg>
