<svg width="512" height="512" viewBox="0 0 512 512" fill="none" xmlns="http://www.w3.org/2000/svg">
<g clip-path="url(#clip0_1036_291)">
<path d="M473.6 46.1434C461.607 36.1152 447.553 28.8504 432.437 24.8648C417.32 20.8792 401.512 20.2705 386.133 23.0821L304.597 37.8874C285.773 41.3443 268.657 51.0293 256 65.3861C243.31 51.0045 226.145 41.3173 207.275 37.8874L125.867 23.0821C110.489 20.2681 94.6801 20.8687 79.56 24.8416C64.4399 28.8144 50.3779 36.0622 38.3694 46.072C26.3609 56.0818 16.6994 68.6089 10.069 82.7665C3.43847 96.9241 0.00104133 112.366 0 127.999L0 358.25C0.00122572 383.227 8.7675 407.412 24.7708 426.588C40.7742 445.765 62.9997 458.718 87.5733 463.189L221.675 487.573C244.372 491.697 267.628 491.697 290.325 487.573L424.533 463.189C449.087 458.696 471.288 445.733 487.27 426.559C503.252 407.384 512.003 383.212 512 358.25V127.999C512.01 112.372 508.574 96.9338 501.936 82.7854C495.299 68.637 485.624 56.126 473.6 46.1434ZM234.667 446.463C232.875 446.207 231.083 445.909 229.291 445.589L95.2107 421.226C80.4643 418.543 67.1273 410.77 57.5251 399.261C47.9228 387.752 42.6644 373.239 42.6667 358.25V127.999C42.6667 111.026 49.4095 94.7469 61.4118 82.7446C73.4142 70.7422 89.6928 63.9994 106.667 63.9994C110.53 64.0086 114.385 64.3584 118.187 65.0447L199.68 79.9781C209.485 81.7723 218.352 86.9428 224.743 94.5923C231.134 102.242 234.645 111.888 234.667 121.855V446.463ZM469.333 358.25C469.336 373.239 464.077 387.752 454.475 399.261C444.873 410.77 431.536 418.543 416.789 421.226L282.709 445.589C280.917 445.909 279.125 446.207 277.333 446.463V121.855C277.332 111.863 280.837 102.187 287.239 94.5148C293.64 86.8423 302.532 81.66 312.363 79.8714L393.877 64.9381C403.109 63.2585 412.596 63.6293 421.669 66.0242C430.741 68.419 439.175 72.7793 446.375 78.7963C453.574 84.8133 459.363 92.3398 463.33 100.843C467.298 109.345 469.347 118.617 469.333 127.999V358.25Z" fill="#969696"/>
</g>
<defs>
<clipPath id="clip0_1036_291">
<rect width="512" height="512" fill="white"/>
</clipPath>
</defs>
</svg>
