<svg width="512" height="512" viewBox="0 0 512 512" fill="none" xmlns="http://www.w3.org/2000/svg">
<g clip-path="url(#clip0_1036_289)">
<path d="M473.6 46.1434C461.439 35.9965 447.17 28.6852 431.83 24.7405C416.491 20.7958 400.465 20.3168 384.917 23.3381L347.285 32.5541C327.647 36.1529 309.892 46.5239 297.11 61.8623C284.329 77.2006 277.331 96.5351 277.333 116.501V446.463C263.186 448.533 248.814 448.533 234.667 446.463V116.501C234.737 96.7192 227.901 77.5335 215.336 62.2544C202.772 46.9754 185.268 36.5616 165.845 32.8101L125.867 23.0821C110.489 20.2681 94.6801 20.8687 79.56 24.8416C64.4399 28.8144 50.3779 36.0622 38.3694 46.072C26.3609 56.0818 16.6994 68.6089 10.069 82.7665C3.43847 96.9241 0.00104133 112.366 0 127.999L0 358.25C0.00122572 383.227 8.7675 407.412 24.7708 426.588C40.7742 445.765 62.9997 458.718 87.5733 463.189L221.675 487.573C244.372 491.697 267.628 491.697 290.325 487.573L424.533 463.189C449.087 458.696 471.288 445.733 487.27 426.559C503.252 407.384 512.003 383.212 512 358.25V127.999C512.01 112.372 508.574 96.9338 501.936 82.7854C495.299 68.637 485.624 56.126 473.6 46.1434Z" fill="#5364FF"/>
</g>
<defs>
<clipPath id="clip0_1036_289">
<rect width="512" height="512" fill="white"/>
</clipPath>
</defs>
</svg>
