<svg width="12" height="13" viewBox="0 0 12 13" fill="none" xmlns="http://www.w3.org/2000/svg">
<circle cx="6" cy="6.5" r="6" fill="black"/>
<g clip-path="url(#clip0_938_186)">
<path d="M7.88711 8.22389L8.92076 7.1833C9.0886 7.00623 9.18225 6.77089 9.18225 6.52613C9.18225 6.28138 9.0886 6.04603 8.92076 5.86896L7.88711 4.82837C7.85061 4.79033 7.80695 4.75999 7.75869 4.73912C7.71042 4.71824 7.6585 4.70726 7.60597 4.7068C7.55344 4.70634 7.50134 4.71641 7.45272 4.73644C7.4041 4.75647 7.35993 4.78604 7.32278 4.82344C7.28563 4.86083 7.25626 4.9053 7.23636 4.95425C7.21647 5.0032 7.20646 5.05564 7.20692 5.10853C7.20737 5.16141 7.21829 5.21367 7.23902 5.26227C7.25976 5.31086 7.2899 5.35481 7.32768 5.39155L8.06066 6.12997L3.24715 6.13608C3.14222 6.13608 3.04159 6.17804 2.9674 6.25273C2.8932 6.32742 2.85152 6.42873 2.85152 6.53436C2.85152 6.63999 2.8932 6.7413 2.9674 6.81599C3.04159 6.89069 3.14222 6.93265 3.24715 6.93265L8.0567 6.92654L7.32768 7.66071C7.25562 7.73583 7.21574 7.83644 7.21664 7.94087C7.21754 8.0453 7.25915 8.14519 7.3325 8.21904C7.40586 8.29288 7.50509 8.33477 7.60882 8.33568C7.71255 8.33659 7.81249 8.29644 7.88711 8.22389Z" fill="white"/>
</g>
<defs>
<clipPath id="clip0_938_186">
<rect width="6.33009" height="6.37257" fill="white" transform="translate(9.19156 9.71228) rotate(-180)"/>
</clipPath>
</defs>
</svg>
