<svg width="24" height="24" viewBox="0 0 24 24" fill="none" xmlns="http://www.w3.org/2000/svg">
<g clip-path="url(#clip0_1089_222)">
<path d="M19.3322 14.6672C18.5761 14.6679 17.8315 14.8524 17.1627 15.2051C16.4939 15.5577 15.9209 16.0678 15.4932 16.6912L8.9842 13.7522C9.44651 12.6359 9.44831 11.3819 8.9892 10.2642L15.4892 7.31025C16.1231 8.227 17.0645 8.88621 18.1428 9.16829C19.2211 9.45038 20.3647 9.33665 21.3663 8.84775C22.3679 8.35884 23.1611 7.52715 23.602 6.50351C24.043 5.47988 24.1024 4.33212 23.7696 3.26842C23.4367 2.20472 22.7337 1.29554 21.7879 0.705803C20.8422 0.116061 19.7164 -0.11518 18.6147 0.0540236C17.5131 0.223227 16.5086 0.781668 15.7834 1.62805C15.0583 2.47443 14.6605 3.55269 14.6622 4.66725C14.6664 4.93105 14.6932 5.194 14.7422 5.45325L7.8322 8.59325C7.16854 7.97147 6.33771 7.55708 5.44177 7.40101C4.54584 7.24493 3.62383 7.35396 2.78901 7.7147C1.95419 8.07545 1.24293 8.67218 0.742596 9.43161C0.242267 10.191 -0.0253343 11.0801 -0.0273325 11.9895C-0.0293306 12.8989 0.234362 13.7891 0.731349 14.5507C1.22834 15.3124 1.93697 15.9122 2.7702 16.2766C3.60342 16.641 4.52495 16.7541 5.42156 16.602C6.31817 16.4498 7.15081 16.0391 7.8172 15.4202L14.7452 18.5482C14.6971 18.8073 14.6707 19.0698 14.6662 19.3332C14.666 20.2564 14.9396 21.1588 15.4523 21.9265C15.9651 22.6941 16.6939 23.2924 17.5468 23.6458C18.3996 23.9992 19.338 24.0917 20.2434 23.9116C21.1488 23.7316 21.9805 23.2871 22.6333 22.6343C23.286 21.9816 23.7305 21.1499 23.9106 20.2445C24.0906 19.3391 23.9981 18.4006 23.6448 17.5478C23.2914 16.695 22.6931 15.9661 21.9254 15.4534C21.1578 14.9406 20.2553 14.667 19.3322 14.6672ZM19.3322 2.00025C19.8597 2.00005 20.3755 2.1563 20.8142 2.44923C21.2529 2.74217 21.5949 3.15862 21.7969 3.64594C21.9989 4.13325 22.0519 4.66953 21.9491 5.18694C21.8463 5.70435 21.5924 6.17966 21.2194 6.55275C20.8465 6.92583 20.3712 7.17994 19.8539 7.28293C19.3365 7.38592 18.8002 7.33316 18.3128 7.13133C17.8254 6.9295 17.4088 6.58766 17.1157 6.14906C16.8226 5.71045 16.6662 5.19477 16.6662 4.66725C16.6667 3.96025 16.9477 3.28235 17.4476 2.78233C17.9474 2.28232 18.6252 2.00104 19.3322 2.00025ZM4.6662 14.6672C4.13867 14.6674 3.62294 14.5112 3.18422 14.2183C2.7455 13.9253 2.40351 13.5089 2.2015 13.0216C1.99949 12.5342 1.94653 11.998 2.04932 11.4806C2.15212 10.9631 2.40605 10.4878 2.77899 10.1147C3.15194 9.74166 3.62715 9.48755 4.14453 9.38457C4.6619 9.28158 5.1982 9.33434 5.68559 9.53617C6.17297 9.73799 6.58956 10.0798 6.88266 10.5184C7.17576 10.957 7.3322 11.4727 7.3322 12.0002C7.33141 12.7072 7.0503 13.3849 6.55053 13.8849C6.05076 14.3848 5.37312 14.6662 4.6662 14.6672ZM19.3322 22.0002C18.8047 22.0002 18.2891 21.8438 17.8505 21.5508C17.4119 21.2577 17.0701 20.8412 16.8682 20.3539C16.6664 19.8665 16.6135 19.3303 16.7164 18.8129C16.8194 18.2956 17.0734 17.8204 17.4463 17.4474C17.8193 17.0744 18.2945 16.8204 18.8119 16.7175C19.3292 16.6146 19.8655 16.6674 20.3528 16.8693C20.8401 17.0711 21.2567 17.413 21.5497 17.8515C21.8428 18.2901 21.9992 18.8058 21.9992 19.3332C21.9987 20.0404 21.7175 20.7185 21.2175 21.2185C20.7174 21.7186 20.0394 21.9997 19.3322 22.0002Z" fill="black"/>
</g>
<defs>
<clipPath id="clip0_1089_222">
<rect width="24" height="24" fill="white"/>
</clipPath>
</defs>
</svg>
