<svg width="553" height="462" viewBox="0 0 553 462" fill="none" xmlns="http://www.w3.org/2000/svg">
<path d="M367 1.89108C361 4.42441 354.2 12.0244 351.133 19.3578C348.733 25.0911 348.333 29.7578 347.667 54.5578L347 83.2244L340.333 83.4911C297.533 85.6244 242.867 100.291 203 120.158C90.6 176.424 15.6667 284.424 3.00001 408.558C-0.733328 444.558 0.466672 454.824 9.00001 459.224C18.0667 463.891 25.8 460.958 34.3333 449.624C37.5333 445.491 46.3333 435.091 53.6667 426.558C106.867 366.158 183.533 319.891 262.467 300.691C287.667 294.558 324.2 289.224 341 289.224H347.533L347.933 317.491C348.333 343.758 348.6 346.424 351.4 352.558C355.533 361.624 361.533 367.358 369.4 370.024C377.4 372.691 383.667 372.024 393.933 367.224C400.733 364.158 410.2 355.224 469.4 296.158C506.6 258.958 539.267 225.358 541.933 221.491C555 201.758 556.333 177.091 545.4 155.358C542.867 150.158 525.8 132.291 471.8 78.1578C394.2 0.291104 393.533 -0.242256 378.467 0.024411C374.333 0.024411 369.133 0.957746 367 1.89108ZM449.933 101.491C516.2 167.891 516.867 168.691 519 176.424C521.667 185.358 521 192.024 516.867 200.158C513.933 205.891 383.8 337.224 381.133 337.224C380.067 337.224 379.667 326.691 379.667 302.824C379.667 265.224 379.4 264.024 371.8 258.958C366.467 255.358 358.6 255.091 330.867 257.224C222.6 265.891 127.8 308.824 49.4 384.424C42.6 390.958 37 395.891 37 395.358C37 394.691 38.2 388.158 39.8 380.824C63.2667 264.158 149 167.891 261.667 131.491C291.4 121.891 315 117.624 347.133 115.891C359 115.358 369.933 114.158 371.533 113.224C373.133 112.424 375.667 109.758 377 107.491C379.4 103.491 379.667 100.558 379.667 68.8244C379.667 42.0244 380.067 34.5578 381.4 34.5578C382.333 34.5578 413.133 64.6911 449.933 101.491Z" fill="#969696"/>
</svg>
