<svg width="491" height="512" viewBox="0 0 491 512" fill="none" xmlns="http://www.w3.org/2000/svg">
<path d="M405.302 41.6928L211.02 1.79948C185.27 -3.49119 158.881 3.01548 138.529 19.5915C118.177 36.1888 106.508 60.7648 106.508 87.0261V90.8875L25.121 171.57C-7.79637 204.189 -8.4577 257.906 23.6916 291.357L127.862 399.41V426.653C127.862 473.714 166.134 511.986 213.196 511.986H362.529C409.59 511.986 447.862 473.714 447.862 426.653V366.749L478.326 290.61C486.433 270.365 490.529 249.053 490.529 227.229V146.162C490.529 95.7515 454.689 51.8048 405.324 41.6715L405.302 41.6928ZM447.841 227.25C447.841 243.613 444.748 259.613 438.668 274.802L406.689 354.781C405.686 357.298 405.174 359.986 405.174 362.695V426.695C405.174 450.226 386.038 469.362 362.508 469.362H213.174C189.644 469.362 170.508 450.226 170.508 426.695V390.855C170.508 385.33 168.353 380.018 164.534 376.05L54.4116 261.789C38.369 245.085 38.7103 218.226 55.1583 201.885L106.508 150.962V234.653C106.508 246.429 116.044 255.986 127.841 255.986C139.638 255.986 149.174 246.429 149.174 234.653V87.0475C149.174 73.6715 155.126 61.1488 165.516 52.6795C175.884 44.2315 189.388 40.9461 202.444 43.6128L396.705 83.4848C426.337 89.5648 447.82 115.933 447.82 146.183L447.841 227.25Z" fill="#969696"/>
</svg>
