<svg width="416" height="416" viewBox="0 0 416 416" fill="none" xmlns="http://www.w3.org/2000/svg">
<circle cx="211.5" cy="213.5" r="67.5" fill="white"/>
<path d="M199.2 100.133C196.4 102.4 191.333 106.8 188.133 110.133C181.2 116.8 179.733 117.067 163.466 114C149.866 111.333 145.2 112.667 142.266 119.733C139.866 125.6 137.733 133.2 136.266 140.667C135.466 144.4 134.266 146.4 132 147.6C130.133 148.4 123.333 151.6 116.933 154.667C101.2 162 100.8 163.6 107.866 183.333C109.333 187.6 110.666 192.933 110.666 195.067C110.666 198.267 107.866 204.4 105.333 206.667C104.933 207.067 102.533 210.533 100.133 214.4C93.5995 224.667 93.9995 228.533 102 235.2C105.466 238.267 111.066 243.2 114.133 246.4L120 252V267.867V283.867L123.866 286.533C126 288.133 129.466 289.333 131.6 289.333C133.6 289.333 140 290 145.6 290.933L156 292.4L161.333 300.933C164.266 305.6 166.666 310 166.666 310.533C166.666 311.067 168.533 313.467 170.933 315.867C176.4 321.467 180.4 321.067 195.866 313.467C202 310.533 207.6 308 208.533 308C209.333 308 215.466 310.8 222 314C234.266 320.133 238.266 321.067 242.533 318.667C245.066 317.467 251.6 308 256.8 298.133C259.6 292.933 260.133 292.533 268.8 291.067C273.866 290.267 280.4 289.467 283.333 289.467C286.933 289.333 290 288.267 292.666 286.133L296.666 282.933L296.4 266.933L296 250.8L302.266 245.733C305.866 242.933 311.2 238.267 314.266 235.467C322.533 228 322.266 223.6 312.666 209.2C304.266 196.533 303.866 194.133 308.533 182.8C310.266 178.4 312.133 172.533 312.666 169.6C314 161.067 311.6 159.2 284.4 148C282.4 147.2 280.933 144.933 280 141.067C273.066 112.8 271.333 111.067 254 114C236.4 117.2 234.666 116.933 227.466 109.733C212.133 94.6668 207.866 93.2001 199.2 100.133ZM256.666 175.2C261.466 178.933 263.333 184.8 261.333 190.133C259.866 194 210.266 244.933 202.133 250.8C196 255.333 190.666 255.733 184.8 252C182.533 250.667 174.8 243.467 167.733 236.267C156.133 224.533 154.666 222.533 154.666 218.267C154.666 212.267 159.733 206 165.466 204.8C171.066 203.733 176.666 206.533 184.666 214.667C188.266 218.4 191.866 221.333 192.666 221.333C193.466 221.333 203.333 211.867 214.666 200.267C226 188.8 237.466 177.733 240 175.733C245.866 171.2 251.066 171.067 256.666 175.2Z" fill="#0395FF"/>
</svg>
