<svg width="12" height="25" viewBox="0 0 12 25" fill="none" xmlns="http://www.w3.org/2000/svg">
<circle cx="6.18495" cy="15.2904" r="3.56971" fill="white"/>
<path d="M5.53441 9.2964C5.38633 9.41627 5.11838 9.64897 4.94915 9.82525C4.58248 10.1778 4.50492 10.1919 3.64466 10.0297C2.92543 9.88871 2.67864 9.95922 2.52351 10.3329C2.39659 10.6432 2.28377 11.0451 2.2062 11.44C2.16389 11.6374 2.10043 11.7432 1.98056 11.8067C1.88184 11.849 1.52223 12.0182 1.18377 12.1804C0.351715 12.5682 0.330561 12.6528 0.704279 13.6964C0.781843 13.922 0.852356 14.2041 0.852356 14.3169C0.852356 14.4861 0.704279 14.8105 0.570305 14.9304C0.549151 14.9515 0.422228 15.1349 0.295304 15.3394C-0.0502083 15.8823 -0.0290545 16.0868 0.394022 16.4394C0.577356 16.6015 0.87351 16.8624 1.03569 17.0317L1.34595 17.3278V18.1669V19.0131L1.55043 19.1541C1.66325 19.2387 1.84659 19.3022 1.95941 19.3022C2.06518 19.3022 2.40364 19.3374 2.69979 19.3868L3.24979 19.4644L3.53184 19.9156C3.68697 20.1624 3.81389 20.3951 3.81389 20.4233C3.81389 20.4515 3.91261 20.5785 4.03953 20.7054C4.32864 21.0015 4.54018 20.9804 5.35812 20.5785C5.68248 20.4233 5.97864 20.2894 6.028 20.2894C6.0703 20.2894 6.39466 20.4374 6.74018 20.6067C7.38889 20.931 7.60043 20.9804 7.82607 20.8535C7.96005 20.79 8.30556 20.2894 8.58056 19.7676C8.72864 19.4926 8.75684 19.4714 9.21518 19.3938C9.48312 19.3515 9.82864 19.3092 9.98377 19.3092C10.1742 19.3022 10.3363 19.2458 10.4774 19.1329L10.6889 18.9637L10.6748 18.1176L10.6536 17.2644L10.985 16.9964C11.1754 16.8483 11.4575 16.6015 11.6197 16.4535C12.0568 16.0586 12.0427 15.8259 11.535 15.0644C11.0908 14.3945 11.0697 14.2676 11.3165 13.6682C11.4081 13.4355 11.5068 13.1252 11.535 12.9701C11.6056 12.5188 11.4786 12.4201 10.0402 11.8278C9.93441 11.7855 9.85684 11.6656 9.80748 11.4611C9.44082 9.96627 9.34915 9.87461 8.43248 10.0297C7.50172 10.199 7.41005 10.1849 7.02928 9.80409C6.21838 9.0073 5.99274 8.92974 5.53441 9.2964ZM8.57351 13.2663C8.82736 13.4637 8.92607 13.774 8.8203 14.056C8.74274 14.2605 6.11966 16.9541 5.68954 17.2644C5.36518 17.5041 5.08312 17.5252 4.77287 17.3278C4.653 17.2573 4.24402 16.8765 3.8703 16.4958C3.25684 15.8752 3.17928 15.7695 3.17928 15.5438C3.17928 15.2265 3.44723 14.8951 3.75043 14.8317C4.04659 14.7752 4.34274 14.9233 4.76582 15.3535C4.9562 15.5509 5.14659 15.706 5.18889 15.706C5.2312 15.706 5.753 15.2054 6.35236 14.5919C6.95171 13.9855 7.55813 13.4002 7.6921 13.2945C8.00236 13.0547 8.27736 13.0477 8.57351 13.2663Z" fill="#0395FF"/>
</svg>
