<svg width="16" height="16" viewBox="0 0 16 16" fill="none" xmlns="http://www.w3.org/2000/svg">
<circle cx="8" cy="8" r="8" fill="black"/>
<g clip-path="url(#clip0_863_112)">
<path d="M11.3899 7.88028L11.3833 5.92467C11.3747 5.59948 11.2411 5.2893 11.0103 5.05855C10.7795 4.82779 10.4694 4.69419 10.1442 4.6855L8.18856 4.67896C8.11829 4.6775 8.04852 4.69005 7.98333 4.71588C7.91815 4.74171 7.85884 4.7803 7.80888 4.82939C7.75892 4.87849 7.7193 4.9371 7.69234 5.00182C7.66538 5.06655 7.65162 5.13608 7.65186 5.20636C7.65209 5.27664 7.66632 5.34626 7.69371 5.41116C7.72111 5.47607 7.76112 5.53495 7.81141 5.58438C7.8617 5.63381 7.92126 5.67279 7.98662 5.69906C8.05198 5.72532 8.12184 5.73834 8.1921 5.73735L9.57934 5.74249L5.04688 10.2865C4.94796 10.3854 4.89264 10.5198 4.89311 10.6602C4.89358 10.8006 4.9498 10.9354 5.04939 11.035C5.14898 11.1346 5.28379 11.1908 5.42416 11.1913C5.56453 11.1917 5.69897 11.1364 5.7979 11.0375L10.3266 6.49724L10.3315 7.87674C10.3344 8.01551 10.3916 8.14796 10.4909 8.24557C10.5902 8.34318 10.7236 8.39813 10.8624 8.39859C11.0012 8.39906 11.1343 8.34499 11.2329 8.24805C11.3316 8.1511 11.3879 8.01903 11.3899 7.88028Z" fill="white"/>
</g>
<defs>
<clipPath id="clip0_863_112">
<rect width="8.44012" height="8.49676" fill="white" transform="translate(14.0231 8.05435) rotate(135)"/>
</clipPath>
</defs>
</svg>
